<mxfile host="app.diagrams.net" modified="2024-04-09T14:13:48.896Z" agent="Mozilla/5.0 (Windows NT 10.0; Win64; x64) AppleWebKit/537.36 (KHTML, like Gecko) Chrome/123.0.0.0 Safari/537.36 Edg/123.0.0.0" version="24.2.3" etag="5dk-sIZXNUJy1PrgNTyK" type="github">
  <diagram name="Page-1" id="oC41t1Jx70fzd8AQ3w7Z">
    <mxGraphModel>
      <root>
        <mxCell id="0" />
        <mxCell id="1" parent="0" />
      </root>
    </mxGraphModel>
  </diagram>
</mxfile>
